<?xml version="1.0" encoding="utf-8"?>
<!-- Generator: Adobe Illustrator 26.0.0, SVG Export Plug-In . SVG Version: 6.00 Build 0)  -->
<svg version="1.1" id="Layer_1" xmlns="http://www.w3.org/2000/svg" xmlns:xlink="http://www.w3.org/1999/xlink" x="0px" y="0px"
	 viewBox="0 0 1000 1000" style="enable-background:new 0 0 1000 1000;" xml:space="preserve">
<style type="text/css">
	.st0{fill:none;stroke:#FFFFFF;stroke-width:25.2197;stroke-linecap:round;stroke-miterlimit:10;}
	.st1{fill:none;stroke:#FFFFFF;stroke-width:17.6538;stroke-linecap:round;stroke-miterlimit:3;}
	.st2{fill:none;stroke:#FFFFFF;stroke-width:17.6538;stroke-linecap:round;}
	.st3{fill:none;stroke:#FFFFFF;stroke-width:21.4124;stroke-miterlimit:10;}
	.st4{fill:#FFFFFF;stroke:#FFFFFF;stroke-width:25.2197;stroke-miterlimit:10;}
	.st5{fill:#FFFFFF;}
</style>
<g>
	<g>
		<path class="st0" d="M571.35,423.29c0,0-282.57-17.33-429.03,80.55c-0.05,0.03-0.07,0.1-0.02,0.14
			c2.68,2.59,41.19,63.18,209.17,83.77"/>
	</g>
	<g>
		<path class="st1" d="M383.75,530.66l-25.44,17.41c-83.1-17.87-117.87-36.07-122.48-44.58c-0.02-0.03-0.02-0.07,0.01-0.08
			c93.34-46.7,235.54-48.15,237.6-48.15c2.05,0-41.95,24.97-41.95,24.97"/>
	</g>
	<g>
		<path class="st0" d="M427.81,596.15c0,0,283.41,15.8,429.87-82.08c0.05-0.03,0.07-0.1,0.02-0.14
			c-2.68-2.59-42.11-65.52-210.09-86.11"/>
	</g>
	<path class="st2" d="M593.34,462.17c0,0-64.8,92.58-62.59,92.58s95.08-43.3,92.95-42.3s-13.48,42.3-13.48,42.3
		s133.89-25.24,151.22-46.29c17.34-21.05-104.36-41.76-104.36-41.76"/>
	<path class="st3" d="M301.41,792.55l-58.36-51.75c-1.75-1.55-1.91-4.23-0.36-5.98l74.17-83.64c6.86-7.74,18.7-8.45,26.44-1.59
		l36.67,32.52c7.74,6.86,8.45,18.7,1.59,26.44l-74.17,83.64C305.84,793.94,303.16,794.1,301.41,792.55z"/>
	<path class="st3" d="M765.17,269.56l-58.36-51.75c-1.75-1.55-4.43-1.39-5.98,0.36l-74.17,83.64c-6.86,7.74-6.15,19.58,1.59,26.44
		l36.67,32.52c7.74,6.86,19.58,6.15,26.44-1.59l74.17-83.64C767.08,273.79,766.92,271.11,765.17,269.56z"/>
	<line class="st4" x1="646.58" y1="344.51" x2="359.27" y2="668.5"/>
	<g>
		<path class="st5" d="M105.82,158.24c-6.19-3.33-10.91-8.18-14.17-14.56c-3.25-6.38-4.88-14.07-4.88-23.1v-31.4
			c0-9.02,1.62-16.72,4.88-23.1c3.25-6.37,7.97-11.24,14.17-14.6c6.19-3.36,13.64-5.04,22.35-5.04c7.19,0,13.61,1.55,19.28,4.64
			c5.67,3.1,10.35,7.6,14.05,13.5c1.25,1.99,2.36,4.12,3.35,6.38c3.09,7.08-2.32,14.98-10.05,14.98h-0.18
			c-4.31,0-8.14-2.59-9.94-6.51c-0.52-1.13-1.11-2.19-1.75-3.17c-1.76-2.68-3.88-4.72-6.37-6.14c-2.49-1.42-5.29-2.12-8.38-2.12
			c-4.04,0-7.48,0.83-10.31,2.48c-2.83,1.65-5,4.07-6.49,7.24c-1.5,3.17-2.24,6.99-2.24,11.45v31.4c0,4.46,0.75,8.26,2.24,11.41
			c1.49,3.15,3.66,5.55,6.49,7.2c2.83,1.65,6.27,2.48,10.31,2.48c3.15,0,5.98-0.7,8.5-2.09c2.52-1.39,4.64-3.42,6.37-6.1
			c0.63-0.97,1.19-2.01,1.69-3.13c1.79-3.98,5.63-6.63,9.99-6.63h0c7.74,0,13.15,7.93,10.04,15.01c-0.99,2.26-2.11,4.38-3.35,6.36
			c-3.7,5.9-8.37,10.4-14.01,13.5c-5.64,3.1-12.06,4.64-19.24,4.64C119.46,163.24,112.01,161.57,105.82,158.24z"/>
		<path class="st5" d="M206.36,158c-6.32-3.49-11.21-8.42-14.68-14.8c-3.46-6.37-5.19-13.76-5.19-22.15V88.63
			c0-8.39,1.73-15.78,5.19-22.15c3.46-6.37,8.36-11.31,14.68-14.8c6.32-3.49,13.63-5.23,21.92-5.23c8.29,0,15.59,1.75,21.92,5.23
			c6.32,3.49,11.21,8.42,14.68,14.8s5.2,13.76,5.2,22.15v32.43c0,8.4-1.73,15.78-5.2,22.15c-3.46,6.37-8.36,11.31-14.68,14.8
			c-6.32,3.49-13.63,5.23-21.92,5.23C219.99,163.24,212.69,161.49,206.36,158z M238.51,139.19c2.94-1.65,5.21-4,6.81-7.04
			c1.6-3.04,2.4-6.56,2.4-10.55V88.08c0-3.99-0.8-7.5-2.4-10.55c-1.6-3.04-3.87-5.39-6.81-7.04c-2.94-1.65-6.35-2.48-10.23-2.48
			c-3.88,0-7.29,0.83-10.23,2.48c-2.94,1.65-5.21,4-6.81,7.04c-1.6,3.04-2.4,6.56-2.4,10.55v33.53c0,3.99,0.8,7.5,2.4,10.55
			c1.6,3.04,3.87,5.39,6.81,7.04c2.94,1.65,6.35,2.48,10.23,2.48C232.16,141.67,235.57,140.85,238.51,139.19z"/>
		<path class="st5" d="M310.41,158c-6.32-3.49-11.21-8.42-14.68-14.8c-3.46-6.37-5.19-13.76-5.19-22.15V88.63
			c0-8.39,1.73-15.78,5.19-22.15c3.46-6.37,8.36-11.31,14.68-14.8c6.32-3.49,13.63-5.23,21.92-5.23c8.29,0,15.59,1.75,21.92,5.23
			c6.32,3.49,11.21,8.42,14.68,14.8c3.46,6.37,5.2,13.76,5.2,22.15v32.43c0,8.4-1.73,15.78-5.2,22.15
			c-3.46,6.37-8.36,11.31-14.68,14.8c-6.32,3.49-13.63,5.23-21.92,5.23C324.04,163.24,316.73,161.49,310.41,158z M342.56,139.19
			c2.94-1.65,5.21-4,6.81-7.04c1.6-3.04,2.4-6.56,2.4-10.55V88.08c0-3.99-0.8-7.5-2.4-10.55c-1.6-3.04-3.87-5.39-6.81-7.04
			c-2.94-1.65-6.35-2.48-10.23-2.48c-3.88,0-7.29,0.83-10.23,2.48c-2.94,1.65-5.21,4-6.81,7.04c-1.6,3.04-2.4,6.56-2.4,10.55v33.53
			c0,3.99,0.8,7.5,2.4,10.55c1.6,3.04,3.87,5.39,6.81,7.04c2.94,1.65,6.35,2.48,10.23,2.48
			C336.21,141.67,339.62,140.85,342.56,139.19z"/>
		<path class="st5" d="M407.33,47.62h0.79c5.74,0,10.39,4.65,10.39,10.39v93.66c0,5.74-4.65,10.39-10.39,10.39h-0.79
			c-5.74,0-10.39-4.65-10.39-10.39V58.01C396.94,52.27,401.59,47.62,407.33,47.62z M408.82,141.28h52.9
			c6.56,0,11.88,4.65,11.88,10.39v0c0,5.74-5.32,10.39-11.88,10.39h-52.9c-6.56,0-11.88-4.65-11.88-10.39v0
			C396.94,145.93,402.26,141.28,408.82,141.28z"/>
		<path class="st5" d="M572.52,47.62L572.52,47.62c5.13,0,9.63,3.4,11.04,8.32l19.49,68.02l13.05-67.7
			c0.97-5.02,5.36-8.64,10.47-8.64l0,0c6.85,0,11.92,6.37,10.39,13.05l-21.05,91.37c-1.35,5.86-6.56,10.01-12.57,10.01l0,0
			c-5.9,0-11.05-4.01-12.51-9.73L573,82.1l-18.69,70.32c-1.51,5.69-6.66,9.64-12.54,9.64l0,0c-6.04,0-11.29-4.17-12.65-10.06
			l-21.04-91.32c-1.54-6.68,3.53-13.05,10.39-13.05l0,0c5.11,0,9.5,3.62,10.47,8.64l13.05,67.7l19.49-68.02
			C562.89,51.02,567.4,47.62,572.52,47.62z"/>
		<path class="st5" d="M685.86,47.62L685.86,47.62c4.12,0,7.82,2.54,9.29,6.4l35.74,93.46c2.69,7.03-2.5,14.57-10.03,14.57l0,0
			c-4.56,0-8.62-2.88-10.13-7.19l-24.87-70.96l-24.87,70.96c-1.51,4.3-5.57,7.19-10.13,7.19h0c-7.53,0-12.72-7.54-10.03-14.57
			l35.74-93.46C678.04,50.17,681.73,47.62,685.86,47.62z M656.26,122.94h60.21v20.78h-60.21V122.94z"/>
		<path class="st5" d="M744.7,47.62L744.7,47.62c4.56,0,8.6,2.95,9.99,7.3l21.99,69.04l21.99-69.04c1.38-4.35,5.42-7.3,9.99-7.3l0,0
			c7.15,0,12.2,7,9.94,13.79l-31.12,93.47c-1.43,4.28-5.43,7.17-9.94,7.17h-1.73c-4.51,0-8.52-2.89-9.94-7.17l-31.11-93.47
			C732.49,54.63,737.55,47.62,744.7,47.62z"/>
		<path class="st5" d="M846.96,47.62h0.79c5.74,0,10.39,4.65,10.39,10.39v93.66c0,5.74-4.65,10.39-10.39,10.39h-0.79
			c-5.74,0-10.39-4.65-10.39-10.39V58.01C836.57,52.27,841.22,47.62,846.96,47.62z M848.13,47.62h53.53
			c6.39,0,11.56,4.65,11.56,10.39v0c0,5.74-5.18,10.39-11.56,10.39h-53.53c-6.39,0-11.56-4.65-11.56-10.39v0
			C836.57,52.27,841.75,47.62,848.13,47.62z M854.75,94.84h39.43c5.74,0,10.39,4.65,10.39,10.39v0c0,5.74-4.65,10.39-10.39,10.39
			h-39.43c-5.74,0-10.39-4.65-10.39-10.39v0C844.36,99.5,849.01,94.84,854.75,94.84z M848.13,141.28h53.53
			c6.39,0,11.56,4.65,11.56,10.39v0c0,5.74-5.18,10.39-11.56,10.39h-53.53c-6.39,0-11.56-4.65-11.56-10.39v0
			C836.57,145.93,841.75,141.28,848.13,141.28z"/>
	</g>
	<g>
		<path class="st5" d="M84.16,857.46h0.51c3.73,0,6.76,3.03,6.76,6.76v60.96c0,3.73-3.03,6.76-6.76,6.76h-0.51
			c-3.73,0-6.76-3.03-6.76-6.76v-60.96C77.4,860.49,80.43,857.46,84.16,857.46z M85.13,918.42h34.43c4.27,0,7.73,3.03,7.73,6.76v0
			c0,3.73-3.46,6.76-7.73,6.76H85.13c-4.27,0-7.73-3.03-7.73-6.76v0C77.4,921.45,80.86,918.42,85.13,918.42z"/>
		<path class="st5" d="M142.76,857.46L142.76,857.46c3.88,0,7.02,3.14,7.02,7.02l0,0c0,3.88-3.14,7.02-7.02,7.02h0
			c-3.88,0-7.02-3.14-7.02-7.02l0,0C135.75,860.6,138.89,857.46,142.76,857.46z M142.76,878.77L142.76,878.77
			c3.88,0,7.02,3.14,7.02,7.02v39.13c0,3.88-3.14,7.02-7.02,7.02h0c-3.88,0-7.02-3.14-7.02-7.02v-39.13
			C135.75,881.91,138.89,878.77,142.76,878.77z"/>
		<path class="st5" d="M169.53,929.99c-2.68-1.81-4.72-4.43-6.12-7.86c-1.4-3.43-2.1-7.57-2.1-12.42v-8.5c0-4.88,0.7-9.07,2.1-12.55
			c1.4-3.48,3.44-6.13,6.12-7.94c2.68-1.81,5.9-2.71,9.66-2.71c2.83,0,5.42,0.85,7.76,2.54c1.81,1.31,3.35,3.04,4.61,5.19
			c0.7,1.19,0.99,2.59,0.87,3.96l-0.9,9.82c0-1.81-0.31-3.35-0.92-4.61c-0.61-1.26-1.51-2.23-2.69-2.89s-2.6-1-4.28-1
			c-2.63,0-4.67,0.9-6.12,2.69c-1.45,1.79-2.18,4.31-2.18,7.56v8.45c0,3.18,0.72,5.63,2.18,7.38c1.45,1.74,3.49,2.61,6.12,2.61
			c1.67,0,3.1-0.32,4.28-0.97s2.07-1.59,2.69-2.82c0.61-1.23,0.92-2.71,0.92-4.46l0.62,10.52c0.07,1.19-0.17,2.38-0.71,3.44
			c-1.05,2.04-2.46,3.67-4.21,4.91c-2.25,1.59-4.94,2.38-8.04,2.38C175.42,932.71,172.21,931.8,169.53,929.99z M170.35,951.33
			c-0.25-0.11-0.49-0.22-0.73-0.34c-4.23-2.07-5.07-7.73-1.6-10.92h0c1.99-1.83,4.93-2.37,7.33-1.13c0.31,0.16,0.64,0.31,0.97,0.45
			c1.67,0.7,3.41,1.05,5.22,1.05c2.94,0,5.34-0.8,7.2-2.41c1.86-1.61,2.79-3.82,2.79-6.66v-45.94c0-3.68,2.98-6.66,6.66-6.66h0.71
			c3.68,0,6.66,2.98,6.66,6.66v44.92c0,4.88-0.93,9.07-2.79,12.55c-1.86,3.48-4.58,6.13-8.14,7.94c-3.57,1.81-7.88,2.71-12.93,2.71
			C177.46,953.56,173.68,952.81,170.35,951.33z"/>
		<path class="st5" d="M226.41,857.46L226.41,857.46c3.88,0,7.02,3.14,7.02,7.02v60.44c0,3.88-3.14,7.02-7.02,7.02l0,0
			c-3.88,0-7.02-3.14-7.02-7.02v-60.44C219.39,860.6,222.53,857.46,226.41,857.46z M250.13,899.72c0-2.6-0.74-4.61-2.23-6.04
			c-1.49-1.43-3.59-2.15-6.33-2.15c-2.6,0-4.6,0.73-6.02,2.18c-1.42,1.45-2.13,3.49-2.13,6.12l-0.89-9.69
			c-0.13-1.45,0.18-2.92,0.92-4.18c1.36-2.32,2.91-4.13,4.65-5.43c2.24-1.67,5.05-2.51,8.43-2.51c5.6,0,9.94,1.89,13.01,5.66
			c3.07,3.77,4.61,9.11,4.61,16.01v25.25c0,3.88-3.14,7.02-7.02,7.02l0,0c-3.88,0-7.02-3.14-7.02-7.02V899.72z"/>
		<path class="st5" d="M277.38,878.77h19.05c1.92,0,3.48,1.56,3.48,3.48v5.02c0,1.92-1.56,3.48-3.48,3.48h-19.05
			c-1.92,0-3.48-1.56-3.48-3.48v-5.02C273.89,880.33,275.45,878.77,277.38,878.77z M282.63,928.64c-2.17-2.37-3.25-5.88-3.25-10.53
			v-51.33c0-1.92,1.56-3.48,3.48-3.48h7.07c1.92,0,3.48,1.56,3.48,3.48v47.84c0,1.3,0.26,2.3,0.77,3c0.51,0.7,1.26,1.05,2.25,1.05
			l0,0c1.92,0,3.48,1.56,3.48,3.48v6.56c0,1.92-1.56,3.48-3.48,3.48h-3.59C288.2,932.2,284.8,931.01,282.63,928.64z"/>
		<path class="st5" d="M344.67,904.56c-0.11-6.19,4.93-11.02,11.02-11.02c6.09,0,11.02,4.83,11.02,10.91
			c0,6.19-4.82,11.02-11.02,11.02C349.6,915.47,344.67,910.75,344.67,904.56z"/>
		<path class="st5" d="M421.29,857.46h0.51c3.73,0,6.76,3.03,6.76,6.76v60.96c0,3.73-3.03,6.76-6.76,6.76h-0.51
			c-3.73,0-6.76-3.03-6.76-6.76v-60.96C414.53,860.49,417.55,857.46,421.29,857.46z M422.08,857.46h33.81
			c4.17,0,7.55,3.03,7.55,6.76v0c0,3.73-3.38,6.76-7.55,6.76h-33.81c-4.17,0-7.55-3.03-7.55-6.76v0
			C414.53,860.49,417.91,857.46,422.08,857.46z M426.41,888.86h24.64c3.73,0,6.76,3.03,6.76,6.76l0,0c0,3.73-3.03,6.76-6.76,6.76
			h-24.64c-3.73,0-6.76-3.03-6.76-6.76l0,0C419.65,891.89,422.68,888.86,426.41,888.86z"/>
		<path class="st5" d="M473.82,928.64c-2.82-2.71-4.23-6.84-4.23-12.37c0-5.26,1.58-9.2,4.74-11.83c3.16-2.63,7.9-3.94,14.21-3.94
			h11.04c1.28,0,2.34,0.99,2.43,2.27l0.39,5.84c0.09,1.4-1.02,2.59-2.43,2.59H488.6c-2.12,0-3.71,0.42-4.76,1.26
			c-1.06,0.84-1.59,2.11-1.59,3.82c0,1.74,0.67,3.03,2,3.87c1.33,0.84,3.35,1.25,6.04,1.25c3.76,0,6.55-0.43,8.37-1.28l0,0
			c1.53-0.72,3.33,0.25,3.56,1.93l0.2,1.45c0.03,0.24,0.04,0.49,0,0.73c-0.27,1.76-1.14,3.26-2.59,4.5c-1.56,1.33-3.5,2.33-5.84,3
			c-2.34,0.67-4.81,1-7.4,1C480.89,932.71,476.63,931.35,473.82,928.64z M501.4,898.24c0-2.46-0.82-4.35-2.46-5.69s-3.96-2-6.97-2
			c-1.98,0-3.94,0.32-5.89,0.97c-1.31,0.44-2.51,0.99-3.62,1.65c-0.96,0.58-2.18,0.45-2.97-0.33l-5.53-5.43
			c-1-0.98-0.99-2.62,0.06-3.54c1.82-1.58,4.02-2.86,6.58-3.85c3.48-1.35,7.34-2.02,11.58-2.02c4.64,0,8.61,0.78,11.88,2.33
			s5.78,3.81,7.5,6.76c1.72,2.95,2.59,6.51,2.59,10.68v31.73c0,1.34-1.09,2.43-2.43,2.43h-7.89c-1.34,0-2.43-1.09-2.43-2.43V898.24z
			"/>
		<path class="st5" d="M539.05,931.86c-3.01-0.56-5.82-1.39-8.45-2.48c-0.14-0.06-0.27-0.11-0.4-0.17
			c-3.59-1.54-4.68-6.13-2.23-9.18l1.21-1.51c1.72-2.15,4.69-2.82,7.19-1.65c1.3,0.6,2.62,1.12,3.97,1.55
			c2.8,0.89,5.46,1.33,7.99,1.33c3.28,0,5.82-0.37,7.63-1.1c1.81-0.73,2.71-1.75,2.71-3.05c0-1.2-0.39-2.1-1.18-2.71
			c-0.79-0.61-1.79-1.05-3.02-1.31c-1.23-0.26-2.95-0.49-5.17-0.69c-0.61-0.07-1.24-0.14-1.87-0.2c-0.63-0.07-1.27-0.14-1.92-0.2
			c-0.14-0.03-0.28-0.06-0.44-0.08c-0.15-0.02-0.3-0.03-0.44-0.03c-3.96-0.51-7.14-1.14-9.53-1.9c-2.39-0.75-4.41-2.19-6.07-4.33
			c-1.66-2.13-2.48-5.23-2.48-9.3c0-3.55,0.85-6.59,2.56-9.12c1.71-2.53,4.18-4.45,7.43-5.76c3.24-1.31,7.17-1.97,11.78-1.97
			c2.7,0,5.39,0.27,8.07,0.82c2.68,0.55,5.25,1.33,7.71,2.36c0.02,0.01,0.05,0.02,0.07,0.03c3.63,1.52,4.67,6.18,2.18,9.22
			l-0.84,1.02c-1.63,1.98-4.36,2.75-6.73,1.79c-1.14-0.47-2.31-0.87-3.49-1.2c-2.53-0.72-4.95-1.08-7.27-1.08
			c-2.84,0-5.04,0.32-6.61,0.97c-1.57,0.65-2.36,1.55-2.36,2.71c0,0.89,0.42,1.58,1.25,2.07c0.84,0.5,1.88,0.85,3.12,1.08
			c1.25,0.22,3.06,0.47,5.46,0.74c0.31,0.03,0.61,0.07,0.92,0.1c0.31,0.03,0.61,0.07,0.92,0.1c0.14,0.03,0.29,0.05,0.46,0.05
			c0.17,0,0.32,0.02,0.46,0.05c4.13,0.48,7.5,1.09,10.09,1.84c2.59,0.75,4.81,2.25,6.63,4.51c1.83,2.25,2.74,5.57,2.74,9.94
			c0,3.69-0.89,6.85-2.66,9.48c-1.78,2.63-4.37,4.64-7.79,6.02c-3.41,1.38-7.53,2.07-12.34,2.07
			C545.15,932.71,542.05,932.43,539.05,931.86z"/>
		<path class="st5" d="M581.77,878.77h19.05c1.92,0,3.48,1.56,3.48,3.48v5.02c0,1.92-1.56,3.48-3.48,3.48h-19.05
			c-1.92,0-3.48-1.56-3.48-3.48v-5.02C578.29,880.33,579.85,878.77,581.77,878.77z M587.02,928.64c-2.17-2.37-3.25-5.88-3.25-10.53
			v-51.33c0-1.92,1.56-3.48,3.48-3.48h7.07c1.92,0,3.48,1.56,3.48,3.48v47.84c0,1.3,0.26,2.3,0.77,3c0.51,0.7,1.26,1.05,2.25,1.05
			l0,0c1.92,0,3.48,1.56,3.48,3.48v6.56c0,1.92-1.56,3.48-3.48,3.48h-3.59C592.59,932.2,589.19,931.01,587.02,928.64z"/>
		<path class="st5" d="M649.06,904.56c-0.11-6.19,4.93-11.02,11.02-11.02c6.09,0,11.02,4.83,11.02,10.91
			c0,6.19-4.83,11.02-11.02,11.02C653.99,915.47,649.06,910.75,649.06,904.56z"/>
		<path class="st5" d="M740.53,932.56c-3.4-0.72-6.59-1.77-9.58-3.15c-0.84-0.39-1.65-0.8-2.44-1.23c-3.24-1.78-4.38-5.88-2.57-9.11
			l0.03-0.05c1.77-3.14,5.69-4.28,8.89-2.63c3.34,1.71,7.11,2.9,11.31,3.56c0.21,0.03,0.43,0.06,0.64,0.08
			c6.62,0.57,11.55-0.15,14.79-2.14c2.53-1.55,3.79-3.75,3.79-6.58v-0.05c0-1.98-0.56-3.55-1.69-4.71c-1.13-1.16-2.6-2.01-4.41-2.56
			s-4.13-1.04-6.97-1.49c-0.1-0.03-0.2-0.05-0.28-0.05c-0.09,0-0.18-0.02-0.28-0.05l-1.13-0.15c-4.99-0.79-9.12-1.77-12.4-2.95
			c-3.28-1.18-6.06-3.24-8.35-6.2s-3.43-7.15-3.43-12.58v-0.05c0-4.81,1.08-8.93,3.23-12.34s5.28-6.02,9.37-7.81
			s9.05-2.69,14.85-2.69c2.66,0,5.39,0.31,8.17,0.92c2.78,0.61,5.51,1.5,8.17,2.66c0.55,0.24,1.1,0.49,1.63,0.75
			c3.38,1.64,4.83,5.67,3.15,9.04l0,0c-1.6,3.19-5.45,4.62-8.68,3.1c-1.14-0.53-2.29-1.01-3.46-1.42c-3.12-1.09-6.12-1.64-8.99-1.64
			c-4.3,0-7.63,0.71-9.99,2.13c-2.36,1.42-3.53,3.41-3.53,5.97v0.05c0,2.15,0.61,3.85,1.84,5.1c1.23,1.25,2.75,2.16,4.56,2.74
			c1.81,0.58,4.35,1.2,7.63,1.84c0.14,0.03,0.27,0.06,0.41,0.08c0.14,0.02,0.27,0.04,0.41,0.08c0.2,0.03,0.4,0.08,0.59,0.13
			c0.19,0.05,0.38,0.09,0.59,0.13c4.71,0.92,8.65,2.04,11.81,3.36c3.16,1.31,5.8,3.43,7.91,6.35c2.12,2.92,3.18,6.91,3.18,11.96v0.1
			c0,4.75-1.11,8.81-3.33,12.19c-2.22,3.38-5.46,5.96-9.71,7.73c-4.25,1.78-9.37,2.66-15.34,2.66
			C747.4,933.63,743.92,933.27,740.53,932.56z"/>
		<path class="st5" d="M848.79,880.46h16.75c3.28,0,5.94,2.66,5.94,5.94v0.1c0,3.28-2.66,5.94-5.94,5.94h-16.75
			c-3.28,0-5.94-2.66-5.94-5.94v-0.1C842.84,883.12,845.5,880.46,848.79,880.46z M848.48,873.24c0-4.71,1.08-8.24,3.25-10.58
			s5.51-3.51,10.01-3.51h3.79c3.28,0,5.94,2.66,5.94,5.94v0.61c0,3.28-2.66,5.94-5.94,5.94l0,0c-0.99,0-1.74,0.38-2.25,1.13
			c-0.51,0.75-0.77,1.72-0.77,2.92v51.99c0,3.28-2.66,5.94-5.94,5.94h-2.15c-3.28,0-5.94-2.66-5.94-5.94V873.24z"/>
		<path class="st5" d="M888.3,930.84c-3.64-1.86-6.41-4.58-8.32-8.14c-1.91-3.57-2.87-7.86-2.87-12.88v-5.99
			c0-5.26,0.91-9.75,2.74-13.47c1.83-3.72,4.49-6.56,7.99-8.5c3.5-1.95,7.73-2.92,12.68-2.92c4.64,0,8.62,1.16,11.93,3.48
			c3.31,2.32,5.83,5.69,7.56,10.12c1.72,4.42,2.59,9.76,2.59,16.01l0,0c0,1.92-1.56,3.48-3.48,3.48h-29.4
			c-1.92,0-3.48-1.56-3.48-3.48v-2.51c0-1.92,1.56-3.48,3.48-3.48h20.08l-0.15-1.23c-0.38-3.07-1.34-5.45-2.89-7.12
			c-1.55-1.67-3.63-2.51-6.22-2.51c-3.38,0-6,1.01-7.86,3.02c-1.86,2.01-2.79,4.87-2.79,8.55v6.76c0,3.62,1.02,6.42,3.05,8.4
			c2.03,1.98,4.87,2.97,8.53,2.97c1.88,0,3.74-0.33,5.58-1c1.07-0.39,2.09-0.87,3.04-1.45c1.28-0.77,2.91-0.57,4.03,0.42l4.01,3.57
			c1.7,1.51,1.52,4.22-0.36,5.51c-1.83,1.25-3.78,2.29-5.85,3.12c-3.45,1.38-6.93,2.07-10.45,2.07
			C896.32,933.63,891.94,932.7,888.3,930.84z"/>
		<path class="st5" d="M793.03,928.64c-2.82-2.71-4.23-6.84-4.23-12.37c0-5.26,1.58-9.2,4.74-11.83c3.16-2.63,7.9-3.94,14.21-3.94
			h11.04c1.28,0,2.34,0.99,2.43,2.27l0.39,5.84c0.09,1.4-1.02,2.59-2.43,2.59h-11.38c-2.12,0-3.71,0.42-4.76,1.26
			c-1.06,0.84-1.59,2.11-1.59,3.82c0,1.74,0.67,3.03,2,3.87c1.33,0.84,3.35,1.25,6.04,1.25c3.76,0,6.55-0.43,8.37-1.28l0,0
			c1.53-0.72,3.33,0.25,3.56,1.93l0.2,1.45c0.03,0.24,0.04,0.49,0,0.73c-0.27,1.76-1.14,3.26-2.59,4.5c-1.56,1.33-3.5,2.33-5.84,3
			c-2.34,0.67-4.81,1-7.4,1C800.11,932.71,795.85,931.35,793.03,928.64z M820.61,898.24c0-2.46-0.82-4.35-2.46-5.69
			c-1.64-1.33-3.96-2-6.97-2c-1.98,0-3.94,0.32-5.89,0.97c-1.31,0.44-2.51,0.99-3.62,1.65c-0.96,0.58-2.18,0.45-2.97-0.33
			l-5.53-5.43c-1-0.98-0.99-2.62,0.06-3.54c1.82-1.58,4.02-2.86,6.58-3.85c3.48-1.35,7.34-2.02,11.58-2.02
			c4.64,0,8.61,0.78,11.88,2.33s5.78,3.81,7.5,6.76c1.72,2.95,2.59,6.51,2.59,10.68v31.73c0,1.34-1.09,2.43-2.43,2.43h-7.89
			c-1.34,0-2.43-1.09-2.43-2.43V898.24z"/>
	</g>
</g>
</svg>
